<?xml version="1.0" encoding="UTF-8"?>
<svg width="20px" height="17px" viewBox="0 0 20 17" version="1.1" xmlns="http://www.w3.org/2000/svg" xmlns:xlink="http://www.w3.org/1999/xlink">
    <!-- Generator: Sketch 46.2 (44496) - http://www.bohemiancoding.com/sketch -->
    <title>history-icon</title>
    <desc>Created with Sketch.</desc>
    <defs></defs>
    <g id="Web" stroke="none" stroke-width="1" fill="none" fill-rule="evenodd" opacity="0.9">
        <g id="Desktop:-new-task-map" transform="translate(-409.000000, -383.000000)" fill-rule="nonzero" fill="#9B9B9B">
            <g id="content" transform="translate(-2.000000, 340.000000)">
                <g id="tab-copy" transform="translate(395.000000, 24.000000)">
                    <g id="history-icon" transform="translate(16.000000, 19.000000)">
                        <path d="M11.4238095,0 C6.68571429,0 2.85714286,3.80611111 2.85714286,8.5 L0,8.5 L3.70952381,12.1786111 L3.77619048,12.3155556 L7.61904762,8.5 L4.76190476,8.5 C4.76190476,4.84972222 7.74761905,1.88888889 11.4285714,1.88888889 C15.1095238,1.88888889 18.0952381,4.84972222 18.0952381,8.5 C18.0952381,12.1502778 15.1095238,15.1111111 11.4285714,15.1111111 C9.58571429,15.1111111 7.92380952,14.365 6.71904762,13.1702778 L5.37142857,14.5066667 C6.91904762,16.0461111 9.05714286,17 11.4238095,17 C16.1619048,17 20,13.1938889 20,8.5 C20,3.80611111 16.1619048,0 11.4238095,0 Z M11,5 L11,9.64190981 L15.28,12 L16,10.8720159 L12.5,8.94562334 L12.5,5 L11,5 Z" id="Shape"></path>
                    </g>
                </g>
            </g>
        </g>
    </g>
</svg>