<?xml version="1.0" encoding="UTF-8"?>
<svg width="15px" height="15px" viewBox="0 0 15 15" version="1.1" xmlns="http://www.w3.org/2000/svg" xmlns:xlink="http://www.w3.org/1999/xlink">
    <!-- Generator: Sketch 46.2 (44496) - http://www.bohemiancoding.com/sketch -->
    <title>list-icon</title>
    <desc>Created with Sketch.</desc>
    <defs></defs>
    <g id="Web" stroke="none" stroke-width="1" fill="none" fill-rule="evenodd">
        <g id="Desktop:-new-task-map" transform="translate(-622.000000, -386.000000)" fill-rule="nonzero" fill="#9B9B9B">
            <g id="content" transform="translate(-2.000000, 340.000000)">
                <g id="tab-copy-2" transform="translate(607.000000, 25.000000)">
                    <g id="list-icon" transform="translate(17.000000, 21.000000)">
                        <path d="M1.48527695,0.176546404 C1.07260506,0.176546404 0.721843457,0.320972068 0.433182038,0.609728442 C0.144425664,0.89857977 0,1.24924642 0,1.66182335 C0,2.07449524 0.14433071,2.42525684 0.433182038,2.71391826 C0.722033366,3.00267463 1.07279497,3.1471003 1.48527695,3.1471003 C1.89785388,3.1471003 2.24871044,3.00267463 2.53737186,2.71391826 C2.82612823,2.42506693 2.97055389,2.07440028 2.97055389,1.66182335 C2.97055389,1.24924642 2.82612823,0.898389861 2.53737186,0.609728442 C2.24861548,0.320972068 1.89794883,0.176546404 1.48527695,0.176546404" id="Shape"></path>
                        <path d="M14.1662288,1.11742665 C14.1170424,1.06852513 14.0592152,1.04402689 13.9920824,1.04402689 L4.5849486,1.04402689 C4.51791078,1.04402689 4.45989363,1.06843018 4.41089716,1.11742665 C4.36190068,1.16651809 4.33740244,1.22444028 4.33740244,1.2914781 L4.33740244,2.77694495 C4.33740244,2.84398277 4.36190068,2.90190496 4.41089716,2.95099639 C4.45989363,2.99989792 4.51791078,3.02439615 4.5849486,3.02439615 L13.9920824,3.02439615 C14.0592152,3.02439615 14.1171374,2.99999287 14.1662288,2.95099639 C14.2152253,2.90190496 14.2396286,2.84398277 14.2396286,2.77694495 L14.2396286,1.2914781 C14.2396286,1.22444028 14.2151303,1.16642313 14.1662288,1.11742665" id="Shape"></path>
                        <path d="M1.48527695,5.38142933 C1.07260506,5.38142933 0.721843457,5.52576004 0.433182038,5.81461137 C0.144425664,6.10336774 0,6.45403439 0,6.86670628 C0,7.27928321 0.144425664,7.63013977 0.433276992,7.91880119 C0.72212832,8.20755756 1.07288993,8.35198323 1.4853719,8.35198323 C1.89794883,8.35198323 2.24880539,8.20755756 2.53746681,7.91880119 C2.82622318,7.63004481 2.97064885,7.27928321 2.97064885,6.86670628 C2.97064885,6.45403439 2.82622318,6.10327279 2.53737186,5.81461137 C2.24861548,5.525855 1.89794883,5.38142933 1.48527695,5.38142933" id="Shape"></path>
                        <path d="M13.9920824,6.24890982 L4.5849486,6.24890982 C4.51791078,6.24890982 4.45989363,6.2733131 4.41089716,6.32240454 C4.36190068,6.37140101 4.33740244,6.42941816 4.33740244,6.49645598 L4.33740244,7.98192283 C4.33740244,8.04886569 4.36190068,8.10688284 4.41089716,8.15587932 C4.45989363,8.20497075 4.51791078,8.22937404 4.5849486,8.22937404 L13.9920824,8.22937404 C14.0592152,8.22937404 14.1171374,8.20497075 14.1662288,8.15587932 C14.2152253,8.10688284 14.2396286,8.04886569 14.2396286,7.98192283 L14.2396286,6.49645598 C14.2396286,6.42941816 14.2151303,6.37130606 14.1662288,6.32240454 C14.1170424,6.27340806 14.0592152,6.24890982 13.9920824,6.24890982" id="Shape"></path>
                        <path d="M1.48527695,11.4537927 C1.07260506,11.4537927 0.721843457,11.5981235 0.433182038,11.8869748 C0.144425664,12.1758261 0,12.5264928 0,12.9390697 C0,13.3518365 0.14433071,13.7025032 0.433182038,13.9911646 C0.722033366,14.279921 1.07279497,14.4243466 1.48527695,14.4243466 C1.89785388,14.4243466 2.24871044,14.279921 2.53737186,13.9911646 C2.82612823,13.7023133 2.97055389,13.3517416 2.97055389,12.9390697 C2.97055389,12.5264928 2.82612823,12.1756362 2.53737186,11.8869748 C2.24861548,11.5982184 1.89794883,11.4537927 1.48527695,11.4537927" id="Shape"></path>
                        <path d="M13.9920824,11.4537927 L4.5849486,11.4537927 C4.51791078,11.4537927 4.45989363,11.478291 4.41089716,11.5272875 C4.36190068,11.5762839 4.33740244,11.6343011 4.33740244,11.7012439 L4.33740244,13.1867108 C4.33740244,13.2538436 4.36190068,13.3117658 4.41089716,13.3608572 C4.45989363,13.4097587 4.51791078,13.434162 4.5849486,13.434162 L13.9920824,13.434162 C14.0592152,13.434162 14.1171374,13.4097587 14.1662288,13.3608572 C14.2152253,13.3117658 14.2396286,13.2538436 14.2396286,13.1867108 L14.2396286,11.7012439 C14.2396286,11.6343011 14.2151303,11.576189 14.1662288,11.5272875 C14.1170424,11.4783859 14.0592152,11.4537927 13.9920824,11.4537927" id="Shape"></path>
                    </g>
                </g>
            </g>
        </g>
    </g>
</svg>