<?xml version="1.0" encoding="UTF-8"?>
<svg width="30px" height="26px" viewBox="0 0 30 26" version="1.1" xmlns="http://www.w3.org/2000/svg" xmlns:xlink="http://www.w3.org/1999/xlink">
    <!-- Generator: Sketch 46.2 (44496) - http://www.bohemiancoding.com/sketch -->
    <title>map-icon-active</title>
    <desc>Created with Sketch.</desc>
    <defs></defs>
    <g id="Web" stroke="none" stroke-width="1" fill="none" fill-rule="evenodd">
        <g id="Desktop:-new-task-map" transform="translate(-586.000000, -462.000000)" fill-rule="nonzero" fill="#00B6F7">
            <g id="content" transform="translate(-2.000000, 340.000000)">
                <g id="Group" transform="translate(94.000000, 115.000000)">
                    <g id="map-icon-active" transform="translate(494.000000, 7.000000)">
                        <path d="M12.2425914,17.3579314 L12.9382887,19.081103 C12.2645406,19.347742 11.5925855,19.5509364 10.937015,19.6867667 L10.5542331,17.8698367 C11.1036436,17.7551342 11.6712317,17.5831109 12.2425914,17.3579314 Z M6.66328669,19.5835161 C7.3498952,19.7793004 8.07335365,19.8845108 8.81294942,19.8953502 L8.84237991,18.0384305 C8.26731051,18.0290607 7.70887305,17.9495712 7.18159728,17.799227 L6.66328669,19.5835161 Z M21.4268844,16.3423882 C21.9673297,16.4479048 22.4945436,16.6310737 22.9943674,16.8866282 L23.8554567,15.2363323 C23.1960529,14.9007982 22.5020867,14.6595738 21.7896338,14.5215388 L21.4268844,16.3423882 Z M17.51572,14.8190428 L18.0763833,16.589063 C18.649165,16.4112832 19.2153311,16.298969 19.7606608,16.2554886 L19.6109115,14.405489 C18.9259106,14.4600538 18.2209389,14.5998036 17.51572,14.8190428 Z M14.5057099,16.2155601 C14.2952447,16.3461851 14.0881802,16.4656031 13.8848872,16.5782235 L14.7968616,18.1999204 C15.0256899,18.0724187 15.2600209,17.9386705 15.4942901,17.7934704 C15.8166653,17.5957264 16.1317447,17.4196613 16.4410741,17.2635605 L15.5895064,15.6098351 C15.2381335,15.7876149 14.8753841,15.9889108 14.5057099,16.2155601 Z M19.6877029,4.64285058 C19.6877029,5.40094074 19.5041951,6.11916365 19.1784193,6.75042574 L15.0000927,14.8570116 C15.0000927,14.8570116 10.7886878,6.68306172 10.7722414,6.64882855 C10.4773181,6.04304231 10.3127299,5.36107349 10.3127299,4.64285058 C10.3127299,2.07842491 12.4110129,0 15.0000927,0 C17.5889871,4.35136486e-16 19.6877029,2.07842491 19.6877029,4.64285058 Z M17.8126836,4.64285058 C17.8126836,3.10486882 16.5527987,1.85704225 15.0000927,1.85704225 C13.447325,1.85704225 12.1875019,3.10486882 12.1875019,4.64285058 C12.1875019,6.18064863 13.447325,7.42847519 15.0000927,7.42847519 C16.5527987,7.42847519 17.8126836,6.18064863 17.8126836,4.64285058 Z M24.3750657,9.28570116 L19.9771234,9.28570116 L19.0190865,11.1429271 L23.0237361,11.1429271 L25.0471444,17.1570029 L24.4007865,17.8643863 C25.0893117,18.4805834 25.4462492,19.0485233 25.4482277,19.050483 L25.6458943,18.9327184 L27.3983071,24.142774 L2.60008532,24.142774 L4.4788762,18.5660744 C4.54478567,18.6114533 4.59591806,18.6549337 4.66918516,18.7000676 L5.66543215,17.1295061 C5.44198297,16.9897564 5.25884615,16.8519664 5.09765854,16.7233624 L6.97651125,11.1428659 L10.9827065,11.1428659 C10.585333,10.3737525 10.2722321,9.76637405 10.0251025,9.28563992 L5.62505796,9.28563992 L0,26 L30,26 L24.3750657,9.28570116 Z" id="Shape"></path>
                    </g>
                </g>
            </g>
        </g>
    </g>
</svg>