<?xml version="1.0" encoding="UTF-8"?>
<svg width="31px" height="47px" viewBox="0 0 31 47" version="1.1" xmlns="http://www.w3.org/2000/svg" xmlns:xlink="http://www.w3.org/1999/xlink">
    <!-- Generator: Sketch 46.2 (44496) - http://www.bohemiancoding.com/sketch -->
    <title>marker-icon</title>
    <desc>Created with Sketch.</desc>
    <defs></defs>
    <g id="Web" stroke="none" stroke-width="1" fill="none" fill-rule="evenodd">
        <g id="Desktop:-new-task-map" transform="translate(-496.000000, -600.000000)" stroke="#757575" fill-rule="nonzero" fill="#00B6F7">
            <g id="content" transform="translate(-2.000000, 340.000000)">
                <g id="Group-2" transform="translate(94.000000, 172.000000)">
                    <g id="marker-icon" transform="translate(405.000000, 89.000000)">
                        <path d="M14.5,0 C6.49246562,0 0,6.43505859 0,14.375 C0,16.5986328 0.509765625,18.7071758 1.420275,20.5854492 C1.47120625,20.6921836 14.5,46 14.5,46 L27.4225813,20.8999023 C28.4307844,18.9430156 29,16.7249531 29,14.375 C29,6.43505859 22.5089844,0 14.5,0 Z M14.5,23 C9.695425,23 5.8,19.1367188 5.8,14.375 C5.8,9.61328125 9.695425,5.75 14.5,5.75 C19.303125,5.75 23.2,9.61328125 23.2,14.375 C23.2,19.1367188 19.303125,23 14.5,23 Z" id="Shape"></path>
                    </g>
                </g>
            </g>
        </g>
    </g>
</svg>