<svg id="svg" version="1.1" width="2083" height="2000" xmlns="http://www.w3.org/2000/svg" xmlns:xlink="http://www.w3.org/1999/xlink" style="display: block;"><g id="svgg"><path id="path0" d="M152.088 68.069 C 152.088 128.496,152.121 136.125,152.376 136.027 C 152.632 135.929,152.664 128.189,152.664 67.958 C 152.664 7.679,152.632 0.000,152.376 0.000 C 152.121 0.000,152.088 7.691,152.088 68.069 M152.856 68.075 C 152.856 115.859,152.796 136.150,152.653 136.150 C 152.541 136.150,152.503 136.236,152.568 136.342 C 152.634 136.447,152.590 136.534,152.472 136.534 C 152.354 136.534,152.311 136.620,152.376 136.726 C 152.442 136.831,152.398 136.918,152.280 136.918 C 152.162 136.918,152.119 137.004,152.184 137.110 C 152.263 137.238,130.651 137.302,87.493 137.302 C 28.589 137.302,20.459 137.247,22.992 136.864 C 23.285 136.820,22.746 136.777,21.795 136.769 C 19.412 136.749,17.670 137.041,19.779 137.107 C 21.197 137.151,21.206 137.155,20.355 137.328 C 19.423 137.518,17.735 137.375,17.560 137.092 C 17.411 136.851,14.402 136.868,14.402 137.110 C 14.402 137.219,15.003 137.308,15.795 137.315 C 16.936 137.326,17.109 137.365,16.756 137.536 C 16.442 137.687,15.975 137.678,15.028 137.502 C 13.334 137.187,10.766 137.031,11.105 137.264 C 11.269 137.376,10.818 137.432,9.857 137.419 C 5.231 137.355,0.000 137.508,0.000 137.709 C 0.000 137.929,9.284 137.826,12.530 137.569 C 13.629 137.483,14.018 137.513,14.018 137.684 C 14.018 137.855,13.708 137.880,12.841 137.779 C 12.041 137.686,11.704 137.707,11.788 137.843 C 11.871 137.977,11.546 138.011,10.805 137.945 C 9.996 137.874,9.775 137.902,9.986 138.050 C 10.196 138.198,9.988 138.223,9.217 138.145 C 8.636 138.087,8.261 138.110,8.384 138.198 C 8.506 138.286,6.670 138.332,4.303 138.300 C 0.085 138.243,0.000 138.249,0.000 138.632 C 0.000 139.011,0.124 139.024,4.081 139.078 L 8.161 139.134 4.081 139.178 L 0.000 139.222 -0.000 140.179 L -0.000 141.135 4.081 141.191 L 8.161 141.247 4.081 141.291 L 0.000 141.335 -0.000 192.027 L -0.000 242.719 4.081 242.775 L 8.161 242.831 4.081 242.875 L 0.000 242.919 0.000 243.875 L 0.000 244.832 4.081 244.887 L 8.161 244.943 4.081 244.987 C 0.107 245.030,0.000 245.042,0.000 245.425 C 0.000 245.813,0.072 245.819,4.303 245.762 C 6.670 245.730,8.506 245.775,8.384 245.863 C 8.261 245.951,8.636 245.975,9.217 245.916 C 9.988 245.838,10.196 245.864,9.986 246.012 C 9.775 246.160,9.996 246.188,10.805 246.116 C 11.546 246.051,11.871 246.085,11.788 246.219 C 11.704 246.355,12.041 246.375,12.841 246.282 C 13.708 246.182,14.018 246.207,14.018 246.378 C 14.018 246.549,13.629 246.579,12.530 246.492 C 9.284 246.236,0.000 246.132,0.000 246.353 C 0.000 246.553,5.231 246.707,9.857 246.643 C 10.818 246.629,11.269 246.685,11.105 246.797 C 10.766 247.030,13.334 246.875,15.028 246.560 C 15.975 246.383,16.442 246.374,16.756 246.526 C 17.109 246.696,16.933 246.736,15.783 246.746 C 14.899 246.755,14.424 246.831,14.498 246.952 C 14.646 247.191,17.413 247.207,17.560 246.970 C 17.735 246.686,19.423 246.544,20.355 246.734 L 21.219 246.909 19.875 246.953 C 17.834 247.018,19.519 247.319,21.795 247.296 C 22.746 247.286,23.285 247.242,22.992 247.198 C 20.459 246.815,28.589 246.759,87.493 246.759 C 130.651 246.759,152.263 246.824,152.184 246.952 C 152.119 247.057,152.162 247.144,152.280 247.144 C 152.398 247.144,152.442 247.230,152.376 247.336 C 152.311 247.441,152.354 247.528,152.472 247.528 C 152.590 247.528,152.634 247.614,152.568 247.720 C 152.503 247.825,152.541 247.912,152.653 247.912 C 152.796 247.912,152.856 268.202,152.856 315.987 L 152.856 384.061 200.000 384.061 L 247.144 384.061 247.144 315.987 C 247.144 268.202,247.204 247.912,247.347 247.912 C 247.459 247.912,247.497 247.825,247.432 247.720 C 247.366 247.614,247.410 247.528,247.528 247.528 C 247.646 247.528,247.689 247.441,247.624 247.336 C 247.558 247.230,247.602 247.144,247.720 247.144 C 247.838 247.144,247.881 247.057,247.816 246.952 C 247.737 246.824,269.349 246.759,312.507 246.759 C 371.411 246.759,379.541 246.815,377.008 247.198 C 376.715 247.242,377.254 247.285,378.205 247.293 C 380.588 247.313,382.330 247.021,380.221 246.955 C 378.803 246.910,378.794 246.907,379.645 246.734 C 380.577 246.544,382.265 246.686,382.440 246.970 C 382.589 247.210,385.598 247.193,385.598 246.952 C 385.598 246.842,384.997 246.754,384.205 246.746 C 383.064 246.736,382.891 246.696,383.244 246.526 C 383.558 246.374,384.025 246.383,384.972 246.560 C 386.666 246.875,389.234 247.030,388.895 246.797 C 388.731 246.685,389.182 246.629,390.143 246.643 C 394.769 246.707,400.000 246.553,400.000 246.353 C 400.000 246.132,390.716 246.236,387.470 246.492 C 386.371 246.579,385.982 246.549,385.982 246.378 C 385.982 246.207,386.292 246.182,387.159 246.282 C 387.959 246.375,388.296 246.355,388.212 246.219 C 388.129 246.085,388.454 246.051,389.195 246.116 C 390.004 246.188,390.225 246.160,390.014 246.012 C 389.804 245.864,390.012 245.838,390.783 245.916 C 391.364 245.975,391.739 245.951,391.616 245.863 C 391.494 245.775,393.330 245.730,395.697 245.762 C 399.915 245.819,400.000 245.812,400.000 245.429 C 400.000 245.051,399.876 245.037,395.919 244.983 L 391.839 244.927 395.919 244.883 L 400.000 244.839 400.000 243.883 L 400.000 242.927 395.919 242.871 L 391.839 242.815 395.919 242.771 L 400.000 242.727 400.000 192.035 L 400.000 141.342 395.919 141.286 L 391.839 141.231 395.919 141.187 L 400.000 141.143 400.000 140.186 L 400.000 139.230 395.919 139.174 L 391.839 139.118 395.919 139.074 C 399.893 139.031,400.000 139.020,400.000 138.636 C 400.000 138.248,399.928 138.243,395.697 138.300 C 393.330 138.332,391.494 138.286,391.616 138.198 C 391.739 138.110,391.364 138.087,390.783 138.145 C 390.012 138.223,389.804 138.198,390.014 138.050 C 390.225 137.902,390.004 137.874,389.195 137.945 C 388.454 138.011,388.129 137.977,388.212 137.843 C 388.296 137.707,387.959 137.686,387.159 137.779 C 386.292 137.880,385.982 137.855,385.982 137.684 C 385.982 137.513,386.371 137.483,387.470 137.569 C 390.716 137.826,400.000 137.929,400.000 137.709 C 400.000 137.508,394.769 137.355,390.143 137.419 C 389.182 137.432,388.731 137.376,388.895 137.264 C 389.234 137.031,386.666 137.187,384.972 137.502 C 384.025 137.678,383.558 137.687,383.244 137.536 C 382.891 137.366,383.067 137.326,384.217 137.315 C 385.101 137.307,385.576 137.231,385.502 137.110 C 385.354 136.870,382.587 136.854,382.440 137.092 C 382.265 137.375,380.577 137.518,379.645 137.328 L 378.781 137.152 380.125 137.109 C 382.166 137.043,380.481 136.742,378.205 136.766 C 377.254 136.775,376.715 136.820,377.008 136.864 C 379.541 137.247,371.411 137.302,312.507 137.302 C 269.349 137.302,247.737 137.238,247.816 137.110 C 247.881 137.004,247.838 136.918,247.720 136.918 C 247.602 136.918,247.558 136.831,247.624 136.726 C 247.689 136.620,247.646 136.534,247.528 136.534 C 247.410 136.534,247.366 136.447,247.432 136.342 C 247.497 136.236,247.459 136.150,247.347 136.150 C 247.204 136.150,247.144 115.859,247.144 68.075 L 247.144 0.000 200.000 0.000 L 152.856 0.000 152.856 68.075 M247.336 67.958 C 247.336 128.189,247.368 135.929,247.624 136.027 C 247.879 136.125,247.912 128.496,247.912 68.069 C 247.912 7.691,247.879 0.000,247.624 0.000 C 247.368 0.000,247.336 7.679,247.336 67.958 M49.992 136.486 C 68.774 136.513,99.450 136.513,118.163 136.486 C 136.875 136.459,121.507 136.437,84.013 136.437 C 46.519 136.437,31.210 136.459,49.992 136.486 M281.965 136.486 C 300.747 136.513,331.424 136.513,350.136 136.486 C 368.848 136.459,353.481 136.437,315.987 136.437 C 278.493 136.437,263.183 136.459,281.965 136.486 M4.417 136.726 L -0.096 136.833 4.513 136.849 C 7.048 136.858,10.504 136.807,12.194 136.735 L 15.266 136.603 12.098 136.611 C 10.355 136.616,6.899 136.667,4.417 136.726 M387.806 136.727 C 391.098 136.876,400.117 136.965,399.984 136.847 C 399.940 136.808,396.491 136.734,392.319 136.682 C 387.994 136.629,386.054 136.648,387.806 136.727 M87.470 137.685 C 51.877 137.739,22.674 137.717,22.573 137.638 C 22.473 137.559,51.594 137.515,87.288 137.541 L 152.184 137.589 87.470 137.685 M377.427 137.638 C 377.326 137.717,348.123 137.739,312.530 137.685 L 247.816 137.589 312.712 137.541 C 348.406 137.515,377.527 137.559,377.427 137.638 M20.547 137.878 C 19.858 138.099,19.547 138.099,19.683 137.878 C 19.748 137.772,20.078 137.695,20.415 137.705 C 21.000 137.723,21.006 137.731,20.547 137.878 M380.317 137.878 C 380.453 138.099,380.142 138.099,379.453 137.878 C 378.994 137.731,379.000 137.723,379.585 137.705 C 379.922 137.695,380.252 137.772,380.317 137.878 M17.859 138.070 C 17.483 138.313,17.091 138.313,17.091 138.070 C 17.091 137.964,17.328 137.879,17.619 137.881 C 18.030 137.883,18.083 137.925,17.859 138.070 M382.909 138.070 C 382.909 138.313,382.517 138.313,382.141 138.070 C 381.917 137.925,381.970 137.883,382.381 137.881 C 382.672 137.879,382.909 137.964,382.909 138.070 M15.611 138.282 C 15.460 138.434,15.299 138.436,15.045 138.288 C 14.734 138.107,14.760 138.081,15.257 138.076 C 15.670 138.072,15.766 138.127,15.611 138.282 M384.955 138.288 C 384.701 138.436,384.540 138.434,384.389 138.282 C 384.234 138.127,384.330 138.072,384.743 138.076 C 385.240 138.081,385.266 138.107,384.955 138.288 M13.826 138.454 C 13.826 138.695,13.622 138.695,13.250 138.454 C 13.017 138.304,13.045 138.267,13.394 138.265 C 13.632 138.263,13.826 138.349,13.826 138.454 M386.750 138.454 C 386.378 138.695,386.174 138.695,386.174 138.454 C 386.174 138.349,386.368 138.263,386.606 138.265 C 386.955 138.267,386.983 138.304,386.750 138.454 M12.031 138.672 C 11.777 138.820,11.617 138.818,11.465 138.666 C 11.310 138.512,11.406 138.456,11.819 138.460 C 12.316 138.465,12.342 138.491,12.031 138.672 M388.535 138.666 C 388.383 138.818,388.223 138.820,387.969 138.672 C 387.658 138.491,387.684 138.465,388.181 138.460 C 388.594 138.456,388.690 138.512,388.535 138.666 M12.098 245.415 C 12.322 245.560,12.265 245.602,11.847 245.604 C 11.535 245.606,11.357 245.526,11.426 245.415 C 11.573 245.177,11.729 245.177,12.098 245.415 M388.574 245.415 C 388.643 245.526,388.465 245.606,388.153 245.604 C 387.735 245.602,387.678 245.560,387.902 245.415 C 388.271 245.177,388.427 245.177,388.574 245.415 M13.826 245.607 C 13.826 245.713,13.632 245.798,13.394 245.796 C 13.045 245.794,13.017 245.758,13.250 245.607 C 13.622 245.367,13.826 245.367,13.826 245.607 M386.750 245.607 C 386.983 245.758,386.955 245.794,386.606 245.796 C 386.368 245.798,386.174 245.713,386.174 245.607 C 386.174 245.367,386.378 245.367,386.750 245.607 M15.651 245.799 C 15.719 245.910,15.541 245.990,15.230 245.988 C 14.811 245.986,14.755 245.944,14.978 245.799 C 15.347 245.561,15.503 245.561,15.651 245.799 M385.022 245.799 C 385.245 245.944,385.189 245.986,384.770 245.988 C 384.459 245.990,384.281 245.910,384.349 245.799 C 384.497 245.561,384.653 245.561,385.022 245.799 M17.859 245.991 C 18.083 246.136,18.030 246.178,17.619 246.180 C 17.328 246.182,17.091 246.097,17.091 245.991 C 17.091 245.749,17.483 245.749,17.859 245.991 M382.909 245.991 C 382.909 246.097,382.672 246.182,382.381 246.180 C 381.970 246.178,381.917 246.136,382.141 245.991 C 382.517 245.749,382.909 245.749,382.909 245.991 M20.547 246.183 C 21.006 246.330,21.000 246.338,20.415 246.356 C 20.078 246.367,19.748 246.289,19.683 246.183 C 19.547 245.963,19.858 245.963,20.547 246.183 M380.317 246.183 C 380.252 246.289,379.922 246.367,379.585 246.356 C 379.000 246.338,378.994 246.330,379.453 246.183 C 380.142 245.963,380.453 245.963,380.317 246.183 M137.014 246.425 C 145.358 246.452,122.993 246.495,87.315 246.521 C 51.636 246.546,22.485 246.503,22.534 246.423 C 22.613 246.295,97.197 246.296,137.014 246.425 M377.436 246.375 C 377.515 246.503,355.895 246.552,312.685 246.520 L 247.816 246.472 312.338 246.375 C 347.825 246.322,376.963 246.257,377.089 246.231 C 377.215 246.205,377.371 246.270,377.436 246.375 M0.016 247.214 C 0.060 247.253,3.509 247.328,7.681 247.379 C 12.006 247.433,13.946 247.414,12.194 247.334 C 8.902 247.186,-0.117 247.097,0.016 247.214 M387.614 247.342 C 386.135 247.407,388.296 247.421,392.415 247.373 C 396.534 247.325,399.940 247.253,399.984 247.214 C 400.103 247.109,390.713 247.205,387.614 247.342 M49.992 247.672 C 68.774 247.699,99.450 247.699,118.163 247.672 C 136.875 247.645,121.507 247.623,84.013 247.623 C 46.519 247.623,31.210 247.645,49.992 247.672 M281.965 247.672 C 300.747 247.699,331.424 247.699,350.136 247.672 C 368.848 247.645,353.481 247.623,315.987 247.623 C 278.493 247.623,263.183 247.645,281.965 247.672 M152.088 315.993 C 152.088 376.370,152.121 384.061,152.376 384.061 C 152.632 384.061,152.664 376.383,152.664 316.103 C 152.664 255.873,152.632 248.132,152.376 248.034 C 152.121 247.936,152.088 255.566,152.088 315.993 M247.576 248.039 C 247.180 248.199,247.228 384.061,247.624 384.061 C 247.879 384.061,247.912 376.370,247.912 315.987 C 247.912 278.545,247.890 247.918,247.864 247.927 C 247.837 247.935,247.708 247.986,247.576 248.039 " stroke="none" fill="#00b6f7" fill-rule="evenodd"></path><path id="path1" d="M152.712 67.835 C 152.665 135.478,152.663 135.767,152.280 136.150 C 151.898 136.532,151.640 136.534,87.572 136.534 C 32.075 136.534,23.262 136.571,23.352 136.807 C 23.420 136.983,23.300 137.109,23.010 137.165 C 22.765 137.211,51.755 137.261,87.433 137.276 C 130.638 137.293,152.263 137.238,152.184 137.110 C 152.119 137.004,152.162 136.918,152.280 136.918 C 152.398 136.918,152.442 136.831,152.376 136.726 C 152.311 136.620,152.354 136.534,152.472 136.534 C 152.590 136.534,152.638 136.455,152.579 136.358 C 152.519 136.262,152.557 136.154,152.663 136.118 C 152.793 136.075,152.841 113.578,152.808 67.979 L 152.760 -0.096 152.712 67.835 M247.191 68.027 C 247.158 115.875,247.204 136.150,247.347 136.150 C 247.459 136.150,247.497 136.236,247.432 136.342 C 247.366 136.447,247.410 136.534,247.528 136.534 C 247.646 136.534,247.689 136.620,247.624 136.726 C 247.558 136.831,247.602 136.918,247.720 136.918 C 247.838 136.918,247.881 137.004,247.816 137.110 C 247.737 137.238,269.362 137.292,312.567 137.273 C 348.245 137.257,377.193 137.208,376.896 137.163 C 376.454 137.097,376.397 137.033,376.584 136.808 C 376.781 136.571,368.188 136.534,312.458 136.534 C 248.375 136.534,248.102 136.532,247.720 136.150 C 247.338 135.768,247.336 135.462,247.288 67.835 L 247.239 -0.096 247.191 68.027 M16.035 136.669 C 16.563 136.705,17.168 136.818,17.379 136.921 C 17.637 137.047,18.392 137.020,19.683 136.841 L 21.603 136.573 18.339 136.588 C 16.543 136.596,15.506 136.633,16.035 136.669 M378.685 136.635 C 380.308 136.957,382.374 137.123,382.583 136.950 C 382.716 136.839,383.298 136.716,383.875 136.677 C 384.453 136.637,383.457 136.599,381.661 136.592 C 379.866 136.584,378.526 136.604,378.685 136.635 M4.897 136.913 L -0.096 137.014 5.089 137.139 C 7.940 137.207,10.533 137.320,10.850 137.389 L 11.426 137.515 10.946 137.223 L 10.466 136.932 11.250 136.925 C 11.681 136.921,12.519 137.015,13.111 137.134 C 14.041 137.321,14.232 137.308,14.501 137.038 C 14.850 136.690,15.506 136.699,4.897 136.913 M385.441 137.019 C 385.730 137.323,385.886 137.336,386.866 137.139 C 387.471 137.017,388.319 136.921,388.750 136.925 L 389.534 136.932 389.054 137.223 L 388.574 137.515 389.150 137.390 C 389.467 137.322,392.060 137.203,394.911 137.128 L 400.096 136.990 396.430 136.954 C 394.414 136.934,391.044 136.864,388.941 136.798 C 385.284 136.684,385.132 136.693,385.441 137.019 M18.627 137.302 C 18.627 137.529,19.383 137.534,20.451 137.313 C 21.163 137.166,21.124 137.152,19.923 137.132 C 19.172 137.119,18.627 137.191,18.627 137.302 M379.549 137.313 C 380.617 137.534,381.373 137.529,381.373 137.302 C 381.373 137.191,380.828 137.119,380.077 137.132 C 378.876 137.152,378.837 137.166,379.549 137.313 M0.576 137.426 C 1.985 137.549,9.032 137.584,8.607 137.465 C 8.362 137.396,6.303 137.346,4.033 137.353 C 1.762 137.361,0.206 137.393,0.576 137.426 M15.170 137.494 C 15.329 137.596,15.718 137.680,16.035 137.680 C 16.351 137.680,16.740 137.596,16.899 137.494 C 17.102 137.362,16.848 137.308,16.035 137.308 C 15.221 137.308,14.967 137.362,15.170 137.494 M383.101 137.494 C 383.260 137.596,383.649 137.680,383.965 137.680 C 384.282 137.680,384.671 137.596,384.830 137.494 C 385.033 137.362,384.779 137.308,383.965 137.308 C 383.152 137.308,382.898 137.362,383.101 137.494 M391.393 137.465 C 390.968 137.584,398.015 137.549,399.424 137.426 C 399.794 137.393,398.238 137.361,395.967 137.353 C 393.697 137.346,391.638 137.396,391.393 137.465 M12.482 137.686 C 13.178 137.909,14.018 137.909,14.018 137.686 C 14.018 137.580,13.567 137.503,13.010 137.513 C 12.217 137.528,12.104 137.565,12.482 137.686 M22.573 137.638 C 22.674 137.717,51.877 137.739,87.470 137.685 L 152.184 137.589 87.288 137.541 C 51.594 137.515,22.473 137.559,22.573 137.638 M312.530 137.685 C 348.123 137.739,377.326 137.717,377.427 137.638 C 377.527 137.559,348.406 137.515,312.712 137.541 L 247.816 137.589 312.530 137.685 M385.982 137.686 C 385.982 137.909,386.822 137.909,387.518 137.686 C 387.896 137.565,387.783 137.528,386.990 137.513 C 386.433 137.503,385.982 137.580,385.982 137.686 M10.002 137.755 C 10.211 137.935,11.916 138.049,11.808 137.876 C 11.744 137.771,11.293 137.686,10.806 137.686 C 10.320 137.686,9.958 137.717,10.002 137.755 M19.683 137.878 C 19.547 138.099,19.858 138.099,20.547 137.878 C 21.006 137.731,21.000 137.723,20.415 137.705 C 20.078 137.695,19.748 137.772,19.683 137.878 M379.453 137.878 C 380.142 138.099,380.453 138.099,380.317 137.878 C 380.252 137.772,379.922 137.695,379.585 137.705 C 379.000 137.723,378.994 137.731,379.453 137.878 M388.192 137.876 C 388.117 137.997,388.408 138.022,388.996 137.945 C 390.211 137.786,390.287 137.686,389.194 137.686 C 388.707 137.686,388.256 137.771,388.192 137.876 M4.129 138.070 L -0.096 138.177 3.969 138.220 C 6.205 138.243,8.192 138.313,8.386 138.376 C 8.685 138.473,8.695 138.457,8.449 138.264 C 8.223 138.087,8.387 138.061,9.217 138.145 C 9.928 138.217,10.179 138.192,9.986 138.068 C 9.827 137.967,9.395 137.902,9.025 137.923 C 8.656 137.945,6.452 138.011,4.129 138.070 M17.091 138.070 C 17.091 138.313,17.483 138.313,17.859 138.070 C 18.083 137.925,18.030 137.883,17.619 137.881 C 17.328 137.879,17.091 137.964,17.091 138.070 M382.141 138.070 C 382.517 138.313,382.909 138.313,382.909 138.070 C 382.909 137.964,382.672 137.879,382.381 137.881 C 381.970 137.883,381.917 137.925,382.141 138.070 M389.965 138.103 C 389.834 138.185,390.202 138.204,390.783 138.145 C 391.613 138.061,391.777 138.087,391.551 138.264 C 391.305 138.457,391.315 138.473,391.614 138.376 C 391.808 138.313,393.795 138.250,396.031 138.236 C 398.267 138.222,399.923 138.182,399.712 138.149 C 398.816 138.007,390.182 137.966,389.965 138.103 M15.045 138.288 C 15.299 138.436,15.460 138.434,15.611 138.282 C 15.766 138.127,15.670 138.072,15.257 138.076 C 14.760 138.081,14.734 138.107,15.045 138.288 M384.389 138.282 C 384.540 138.434,384.701 138.436,384.955 138.288 C 385.266 138.107,385.240 138.081,384.743 138.076 C 384.330 138.072,384.234 138.127,384.389 138.282 M13.250 138.454 C 13.622 138.695,13.826 138.695,13.826 138.454 C 13.826 138.349,13.632 138.263,13.394 138.265 C 13.045 138.267,13.017 138.304,13.250 138.454 M386.174 138.454 C 386.174 138.695,386.378 138.695,386.750 138.454 C 386.983 138.304,386.955 138.267,386.606 138.265 C 386.368 138.263,386.174 138.349,386.174 138.454 M11.465 138.666 C 11.617 138.818,11.777 138.820,12.031 138.672 C 12.342 138.491,12.316 138.465,11.819 138.460 C 11.406 138.456,11.310 138.512,11.465 138.666 M387.969 138.672 C 388.223 138.820,388.383 138.818,388.535 138.666 C 388.690 138.512,388.594 138.456,388.181 138.460 C 387.684 138.465,387.658 138.491,387.969 138.672 M1.968 139.174 C 3.104 139.207,4.962 139.207,6.097 139.174 C 7.232 139.140,6.303 139.112,4.033 139.112 C 1.762 139.112,0.833 139.140,1.968 139.174 M393.903 139.174 C 395.038 139.207,396.896 139.207,398.032 139.174 C 399.167 139.140,398.238 139.112,395.967 139.112 C 393.697 139.112,392.768 139.140,393.903 139.174 M1.968 141.286 C 3.104 141.320,4.962 141.320,6.097 141.286 C 7.232 141.252,6.303 141.224,4.033 141.224 C 1.762 141.224,0.833 141.252,1.968 141.286 M393.903 141.286 C 395.038 141.320,396.896 141.320,398.032 141.286 C 399.167 141.252,398.238 141.224,395.967 141.224 C 393.697 141.224,392.768 141.252,393.903 141.286 M1.968 242.870 C 3.104 242.904,4.962 242.904,6.097 242.870 C 7.232 242.836,6.303 242.808,4.033 242.808 C 1.762 242.808,0.833 242.836,1.968 242.870 M393.903 242.870 C 395.038 242.904,396.896 242.904,398.032 242.870 C 399.167 242.836,398.238 242.808,395.967 242.808 C 393.697 242.808,392.768 242.836,393.903 242.870 M1.968 244.982 C 3.104 245.016,4.962 245.016,6.097 244.982 C 7.232 244.949,6.303 244.921,4.033 244.921 C 1.762 244.921,0.833 244.949,1.968 244.982 M393.903 244.982 C 395.038 245.016,396.896 245.016,398.032 244.982 C 399.167 244.949,398.238 244.921,395.967 244.921 C 393.697 244.921,392.768 244.949,393.903 244.982 M11.426 245.415 C 11.357 245.526,11.535 245.606,11.847 245.604 C 12.265 245.602,12.322 245.560,12.098 245.415 C 11.729 245.177,11.573 245.177,11.426 245.415 M387.902 245.415 C 387.678 245.560,387.735 245.602,388.153 245.604 C 388.465 245.606,388.643 245.526,388.574 245.415 C 388.427 245.177,388.271 245.177,387.902 245.415 M13.250 245.607 C 13.017 245.758,13.045 245.794,13.394 245.796 C 13.632 245.798,13.826 245.713,13.826 245.607 C 13.826 245.367,13.622 245.367,13.250 245.607 M386.174 245.607 C 386.174 245.713,386.368 245.798,386.606 245.796 C 386.955 245.794,386.983 245.758,386.750 245.607 C 386.378 245.367,386.174 245.367,386.174 245.607 M4.129 245.794 L -0.096 245.895 4.801 246.006 C 7.494 246.067,9.827 246.049,9.986 245.966 C 10.144 245.883,9.798 245.862,9.217 245.919 C 8.440 245.995,8.237 245.969,8.449 245.818 C 8.608 245.705,8.651 245.631,8.545 245.653 C 8.440 245.674,6.452 245.738,4.129 245.794 M14.978 245.799 C 14.755 245.944,14.811 245.986,15.230 245.988 C 15.541 245.990,15.719 245.910,15.651 245.799 C 15.503 245.561,15.347 245.561,14.978 245.799 M384.349 245.799 C 384.281 245.910,384.459 245.990,384.770 245.988 C 385.189 245.986,385.245 245.944,385.022 245.799 C 384.653 245.561,384.497 245.561,384.349 245.799 M391.551 245.797 C 391.777 245.975,391.614 246.001,390.783 245.919 C 390.202 245.862,389.856 245.884,390.014 245.967 C 390.173 246.051,392.506 246.063,395.199 245.994 L 400.096 245.868 396.031 245.834 C 393.795 245.815,391.808 245.748,391.614 245.685 C 391.315 245.588,391.305 245.605,391.551 245.797 M17.091 245.991 C 17.091 246.097,17.328 246.182,17.619 246.180 C 18.030 246.178,18.083 246.136,17.859 245.991 C 17.483 245.749,17.091 245.749,17.091 245.991 M382.141 245.991 C 381.917 246.136,381.970 246.178,382.381 246.180 C 382.672 246.182,382.909 246.097,382.909 245.991 C 382.909 245.749,382.517 245.749,382.141 245.991 M10.658 246.183 L 9.890 246.321 10.790 246.348 C 11.286 246.363,11.745 246.289,11.810 246.183 C 11.939 245.975,11.820 245.975,10.658 246.183 M19.683 246.183 C 19.748 246.289,20.078 246.367,20.415 246.356 C 21.000 246.338,21.006 246.330,20.547 246.183 C 19.858 245.963,19.547 245.963,19.683 246.183 M379.453 246.183 C 378.994 246.330,379.000 246.338,379.585 246.356 C 379.922 246.367,380.252 246.289,380.317 246.183 C 380.453 245.963,380.142 245.963,379.453 246.183 M388.192 246.186 C 388.256 246.290,388.707 246.375,389.194 246.375 C 390.287 246.375,390.211 246.276,388.996 246.117 C 388.408 246.040,388.117 246.065,388.192 246.186 M12.482 246.375 C 12.104 246.496,12.217 246.533,13.010 246.548 C 13.567 246.559,14.018 246.481,14.018 246.375 C 14.018 246.153,13.178 246.153,12.482 246.375 M22.534 246.423 C 22.485 246.503,51.636 246.546,87.315 246.521 C 122.993 246.495,145.358 246.452,137.014 246.425 C 97.197 246.296,22.613 246.295,22.534 246.423 M312.338 246.375 L 247.816 246.472 312.685 246.520 C 355.895 246.552,377.515 246.503,377.436 246.375 C 377.371 246.270,377.215 246.205,377.089 246.231 C 376.963 246.257,347.825 246.322,312.338 246.375 M385.982 246.375 C 385.982 246.481,386.433 246.559,386.990 246.548 C 387.783 246.533,387.896 246.496,387.518 246.375 C 386.822 246.153,385.982 246.153,385.982 246.375 M4.129 246.567 L -0.096 246.675 4.033 246.698 C 6.303 246.711,8.377 246.652,8.641 246.567 C 8.991 246.456,9.017 246.420,8.737 246.437 C 8.526 246.450,6.452 246.508,4.129 246.567 M15.170 246.567 C 14.967 246.699,15.221 246.754,16.035 246.754 C 16.848 246.754,17.102 246.699,16.899 246.567 C 16.740 246.465,16.351 246.381,16.035 246.381 C 15.718 246.381,15.329 246.465,15.170 246.567 M383.101 246.567 C 382.898 246.699,383.152 246.754,383.965 246.754 C 384.779 246.754,385.033 246.699,384.830 246.567 C 384.671 246.465,384.282 246.381,383.965 246.381 C 383.649 246.381,383.260 246.465,383.101 246.567 M391.393 246.596 C 391.638 246.665,393.697 246.715,395.967 246.708 C 398.238 246.701,399.794 246.668,399.424 246.636 C 398.015 246.512,390.968 246.477,391.393 246.596 M9.794 246.769 C 9.318 246.854,6.906 246.929,4.433 246.937 C 1.960 246.945,-0.028 246.983,0.016 247.021 C 0.353 247.313,14.846 247.313,14.553 247.020 C 14.275 246.742,14.094 246.730,13.134 246.923 C 11.470 247.257,10.306 247.221,10.946 246.855 C 11.511 246.532,11.240 246.512,9.794 246.769 M18.627 246.759 C 18.627 246.871,19.172 246.942,19.923 246.929 C 21.124 246.909,21.163 246.896,20.451 246.748 C 19.383 246.528,18.627 246.532,18.627 246.759 M379.453 246.759 C 378.896 246.877,379.004 246.905,380.077 246.926 C 380.830 246.941,381.373 246.871,381.373 246.759 C 381.373 246.545,380.473 246.545,379.453 246.759 M389.054 246.838 L 389.534 247.130 388.750 247.137 C 388.319 247.140,387.481 247.046,386.889 246.927 C 385.932 246.735,385.772 246.749,385.467 247.055 C 385.136 247.386,385.269 247.395,388.943 247.272 C 391.045 247.201,394.414 247.127,396.430 247.108 L 400.096 247.072 394.911 246.934 C 392.060 246.858,389.467 246.740,389.150 246.671 L 388.574 246.546 389.054 246.838 M23.104 246.898 C 23.546 246.965,23.603 247.029,23.416 247.253 C 23.219 247.491,31.812 247.528,87.542 247.528 C 151.625 247.528,151.898 247.529,152.280 247.911 C 152.662 248.293,152.664 248.600,152.712 316.226 L 152.761 384.157 152.809 316.035 C 152.842 268.186,152.796 247.912,152.653 247.912 C 152.541 247.912,152.503 247.825,152.568 247.720 C 152.634 247.614,152.590 247.528,152.472 247.528 C 152.354 247.528,152.311 247.441,152.376 247.336 C 152.442 247.230,152.398 247.144,152.280 247.144 C 152.162 247.144,152.119 247.057,152.184 246.952 C 152.263 246.824,130.638 246.769,87.433 246.788 C 51.755 246.804,22.807 246.854,23.104 246.898 M247.816 246.952 C 247.881 247.057,247.838 247.144,247.720 247.144 C 247.602 247.144,247.558 247.230,247.624 247.336 C 247.689 247.441,247.646 247.528,247.528 247.528 C 247.410 247.528,247.366 247.614,247.432 247.720 C 247.497 247.825,247.459 247.912,247.347 247.912 C 247.204 247.912,247.158 268.186,247.191 316.035 L 247.239 384.157 247.288 316.226 C 247.336 248.600,247.338 248.293,247.720 247.911 C 248.102 247.529,248.375 247.528,312.428 247.528 C 367.925 247.528,376.738 247.490,376.648 247.255 C 376.580 247.078,376.700 246.952,376.990 246.897 C 377.235 246.850,348.245 246.800,312.567 246.786 C 269.362 246.768,247.737 246.824,247.816 246.952 M17.379 247.117 C 17.273 247.225,16.711 247.346,16.131 247.385 C 15.550 247.424,16.543 247.461,18.339 247.467 C 20.576 247.474,21.271 247.432,20.547 247.332 C 19.966 247.252,19.059 247.127,18.531 247.054 C 17.948 246.973,17.495 246.998,17.379 247.117 M380.029 247.245 L 378.397 247.480 381.661 247.468 C 383.457 247.462,384.450 247.424,383.869 247.385 C 383.289 247.346,382.731 247.232,382.631 247.133 C 382.418 246.921,382.210 246.930,380.029 247.245 " stroke="none" fill="#00c8ff" fill-rule="evenodd"></path><path id="path2" d="M7.585 136.359 C 11.810 136.440,15.915 136.437,16.707 136.353 C 17.582 136.261,14.567 136.203,9.025 136.207 L -0.096 136.212 7.585 136.359 M383.293 136.353 C 384.085 136.437,388.190 136.440,392.415 136.359 L 400.096 136.212 390.975 136.207 C 385.433 136.203,382.418 136.261,383.293 136.353 M2.160 136.677 C 3.401 136.711,5.432 136.711,6.673 136.677 C 7.914 136.644,6.899 136.616,4.417 136.616 C 1.935 136.616,0.919 136.644,2.160 136.677 M393.327 136.677 C 394.568 136.711,396.599 136.711,397.840 136.677 C 399.081 136.644,398.065 136.616,395.583 136.616 C 393.101 136.616,392.086 136.644,393.327 136.677 M2.160 247.479 C 3.401 247.512,5.432 247.512,6.673 247.479 C 7.914 247.446,6.899 247.418,4.417 247.418 C 1.935 247.418,0.919 247.446,2.160 247.479 M393.327 247.479 C 394.568 247.512,396.599 247.512,397.840 247.479 C 399.081 247.446,398.065 247.418,395.583 247.418 C 393.101 247.418,392.086 247.446,393.327 247.479 M5.665 247.720 C 0.457 247.814,0.780 247.826,9.025 247.839 C 14.042 247.847,17.585 247.790,16.899 247.713 C 15.545 247.561,14.381 247.561,5.665 247.720 M383.005 247.724 C 382.372 247.792,385.951 247.862,390.959 247.879 C 395.967 247.897,400.028 247.880,399.984 247.842 C 399.833 247.710,384.156 247.602,383.005 247.724 " stroke="none" fill="#00ffff" fill-rule="evenodd"></path><path id="path3" d="M51.512 136.294 C 69.969 136.321,100.170 136.321,118.627 136.294 C 137.084 136.267,121.983 136.245,85.070 136.245 C 48.157 136.245,33.056 136.267,51.512 136.294 M281.373 136.294 C 299.830 136.321,330.031 136.321,348.488 136.294 C 366.944 136.267,351.843 136.245,314.930 136.245 C 278.017 136.245,262.916 136.267,281.373 136.294 M2.844 136.486 C 4.462 136.518,7.054 136.518,8.605 136.485 C 10.157 136.453,8.833 136.427,5.665 136.427 C 2.496 136.427,1.227 136.453,2.844 136.486 M391.515 136.486 C 393.132 136.518,395.724 136.518,397.275 136.485 C 398.827 136.453,397.504 136.427,394.335 136.427 C 391.167 136.427,389.897 136.453,391.515 136.486 M2.844 247.671 C 4.462 247.703,7.054 247.703,8.605 247.671 C 10.157 247.639,8.833 247.613,5.665 247.613 C 2.496 247.613,1.227 247.639,2.844 247.671 M391.515 247.671 C 393.132 247.703,395.724 247.703,397.275 247.671 C 398.827 247.639,397.504 247.613,394.335 247.613 C 391.167 247.613,389.897 247.639,391.515 247.671 M51.512 247.864 C 69.969 247.891,100.170 247.891,118.627 247.864 C 137.084 247.837,121.983 247.815,85.070 247.815 C 48.157 247.815,33.056 247.837,51.512 247.864 M281.373 247.864 C 299.830 247.891,330.031 247.891,348.488 247.864 C 366.944 247.837,351.843 247.815,314.930 247.815 C 278.017 247.815,262.916 247.837,281.373 247.864 " stroke="none" fill="#0080ff" fill-rule="evenodd"></path><path id="path4" d="M21.942 136.672 C 22.234 136.716,22.666 136.715,22.902 136.669 C 23.138 136.623,22.900 136.587,22.372 136.589 C 21.843 136.590,21.650 136.628,21.942 136.672 M377.199 136.672 C 377.491 136.716,377.923 136.715,378.159 136.669 C 378.395 136.623,378.157 136.587,377.628 136.589 C 377.100 136.590,376.907 136.628,377.199 136.672 M15.310 136.864 C 15.651 136.907,16.256 136.908,16.654 136.866 C 17.053 136.824,16.774 136.790,16.035 136.789 C 15.295 136.788,14.969 136.822,15.310 136.864 M383.241 136.864 C 383.582 136.907,384.187 136.908,384.585 136.866 C 384.984 136.824,384.705 136.790,383.965 136.789 C 383.226 136.788,382.900 136.822,383.241 136.864 M10.994 137.055 C 11.284 137.099,11.759 137.099,12.050 137.055 C 12.340 137.011,12.103 136.975,11.522 136.975 C 10.941 136.975,10.703 137.011,10.994 137.055 M376.620 137.050 C 376.805 137.099,377.108 137.099,377.292 137.050 C 377.477 137.002,377.326 136.962,376.956 136.962 C 376.587 136.962,376.435 137.002,376.620 137.050 M387.950 137.055 C 388.241 137.099,388.716 137.099,389.006 137.055 C 389.297 137.011,389.059 136.975,388.478 136.975 C 387.897 136.975,387.660 137.011,387.950 137.055 M2.256 137.253 C 3.550 137.287,5.667 137.287,6.961 137.253 C 8.255 137.220,7.196 137.193,4.609 137.193 C 2.021 137.193,0.963 137.220,2.256 137.253 M393.039 137.253 C 394.333 137.287,396.450 137.287,397.744 137.253 C 399.037 137.220,397.979 137.193,395.391 137.193 C 392.804 137.193,391.745 137.220,393.039 137.253 M1.958 138.021 C 3.087 138.055,4.988 138.055,6.182 138.022 C 7.376 137.988,6.452 137.960,4.129 137.960 C 1.805 137.960,0.828 137.987,1.958 138.021 M393.700 138.021 C 394.830 138.055,396.731 138.055,397.925 138.022 C 399.119 137.988,398.195 137.960,395.871 137.960 C 393.548 137.960,392.571 137.987,393.700 138.021 M1.958 246.135 C 3.087 246.168,4.988 246.169,6.182 246.135 C 7.376 246.101,6.452 246.073,4.129 246.073 C 1.805 246.073,0.828 246.101,1.958 246.135 M393.700 246.135 C 394.830 246.168,396.731 246.169,397.925 246.135 C 399.119 246.101,398.195 246.073,395.871 246.073 C 393.548 246.073,392.571 246.101,393.700 246.135 M2.256 246.903 C 3.550 246.936,5.667 246.936,6.961 246.903 C 8.255 246.870,7.196 246.843,4.609 246.843 C 2.021 246.843,0.963 246.870,2.256 246.903 M393.039 246.903 C 394.333 246.936,396.450 246.936,397.744 246.903 C 399.037 246.870,397.979 246.843,395.391 246.843 C 392.804 246.843,391.745 246.870,393.039 246.903 M10.994 247.089 C 11.284 247.133,11.759 247.133,12.050 247.089 C 12.340 247.045,12.103 247.009,11.522 247.009 C 10.941 247.009,10.703 247.045,10.994 247.089 M22.708 247.084 C 22.892 247.132,23.195 247.132,23.380 247.084 C 23.565 247.036,23.413 246.996,23.044 246.996 C 22.674 246.996,22.523 247.036,22.708 247.084 M387.950 247.089 C 388.241 247.133,388.716 247.133,389.006 247.089 C 389.297 247.045,389.059 247.009,388.478 247.009 C 387.897 247.009,387.660 247.045,387.950 247.089 M15.310 247.282 C 15.651 247.325,16.256 247.325,16.654 247.284 C 17.053 247.242,16.774 247.207,16.035 247.207 C 15.295 247.206,14.969 247.240,15.310 247.282 M383.241 247.282 C 383.582 247.325,384.187 247.325,384.585 247.284 C 384.984 247.242,384.705 247.207,383.965 247.207 C 383.226 247.206,382.900 247.240,383.241 247.282 M21.942 247.473 C 22.234 247.518,22.666 247.516,22.902 247.471 C 23.138 247.425,22.900 247.389,22.372 247.390 C 21.843 247.392,21.650 247.429,21.942 247.473 M377.199 247.473 C 377.491 247.518,377.923 247.516,378.159 247.471 C 378.395 247.425,378.157 247.389,377.628 247.390 C 377.100 247.392,376.907 247.429,377.199 247.473 " stroke="none" fill="#0099ff" fill-rule="evenodd"></path></g></svg>